<svg version="1.1" id="Layer_1" xmlns="http://www.w3.org/2000/svg" xmlns:xlink="http://www.w3.org/1999/xlink" x="0px" y="0px"
	 width="100%" viewBox="0 0 4000 3000" enable-background="new 0 0 4000 3000" xml:space="preserve">
<path fill="#FFFFFF" opacity="1.000000" stroke="none" 
	d="
M2574.000000,3002.000000 
	C1716.000244,3002.000000 859.000488,3002.000000 2.000575,3002.000000 
	C2.000383,2002.000610 2.000383,1002.001099 2.000192,2.001245 
	C1335.332397,2.000830 2668.664795,2.000830 4001.997803,2.000415 
	C4001.998535,1001.998779 4001.998535,2001.997559 4001.999268,3001.998047 
	C3526.333252,3002.000000 3050.666748,3002.000000 2574.000000,3002.000000 
M1540.197876,221.789459 
	C1489.390259,236.072128 1439.929077,254.180099 1391.323853,274.636932 
	C1376.672852,280.803192 1362.434570,287.949646 1346.656860,294.862885 
	C1312.499756,312.707001 1277.877075,329.726471 1244.334351,348.659058 
	C1218.041260,363.499664 1193.084717,380.708191 1166.249146,397.449493 
	C1143.909058,413.623688 1121.288086,429.426178 1099.289062,446.051758 
	C1057.366699,477.734192 1018.057251,512.500366 980.416626,549.136230 
	C968.507935,560.727173 956.919128,572.681641 945.718811,584.957764 
	C925.127014,607.527222 904.210388,629.859985 884.714172,653.357666 
	C836.870239,711.021301 794.367065,772.490662 756.943420,837.429016 
	C752.322205,845.447876 748.253479,853.785034 742.853943,862.826782 
	C728.518372,891.306091 713.508606,919.469849 699.997986,948.335388 
	C677.174866,997.097229 658.159912,1047.397583 641.884521,1098.734375 
	C627.229126,1144.961304 614.635986,1191.740967 605.857361,1239.424805 
	C599.261841,1275.250000 593.901855,1311.311279 588.519531,1347.346191 
	C586.813660,1358.767090 586.808594,1370.442017 585.208557,1383.458740 
	C583.367249,1418.587769 580.785583,1453.697754 579.887207,1488.850830 
	C578.935974,1526.073364 580.207397,1563.314941 583.675171,1600.434082 
	C585.644592,1621.515381 587.202820,1642.647461 589.754517,1663.658569 
	C592.573120,1686.867798 595.583740,1710.100220 599.834778,1733.077515 
	C605.645447,1764.485596 612.097473,1795.805054 619.375671,1826.904663 
	C629.871216,1871.751831 643.870300,1915.578857 659.613342,1958.879272 
	C672.344116,1993.894409 686.239624,2028.429077 702.055054,2062.122070 
	C720.733765,2101.915283 740.898010,2140.966797 763.264160,2178.876709 
	C788.461304,2221.585205 816.026550,2262.697510 845.545471,2302.482422 
	C874.366028,2341.326416 905.522583,2378.334473 938.729736,2413.460205 
	C962.020264,2438.096191 986.619751,2461.547607 1011.418640,2484.688232 
	C1031.508423,2503.434326 1052.180420,2521.663574 1073.655029,2538.791748 
	C1100.246094,2560.000732 1127.538086,2580.389404 1155.239624,2600.133301 
	C1194.772217,2628.309326 1236.151001,2653.690918 1279.078613,2676.350342 
	C1307.143188,2691.163818 1335.900513,2704.679932 1364.500000,2718.460693 
	C1397.778442,2734.495605 1432.293701,2747.571533 1467.021240,2760.040039 
	C1514.126099,2776.952393 1562.107422,2790.995361 1610.934326,2801.984619 
	C1636.631104,2807.767822 1662.472046,2812.963623 1688.362061,2817.814697 
	C1703.245728,2820.603027 1718.338501,2822.322998 1733.372681,2824.245361 
	C1746.167725,2825.881104 1758.989868,2827.411133 1771.842407,2828.472168 
	C1802.907227,2831.036621 1833.961304,2834.244629 1865.086548,2835.421387 
	C1896.676514,2836.615479 1928.348389,2835.855469 1959.981323,2835.590332 
	C1970.681885,2835.500488 1981.373169,2834.309326 1993.070557,2833.557373 
	C1991.454834,2832.592773 1990.931274,2832.036133 1990.350220,2831.968018 
	C1957.097168,2828.058350 1923.806885,2824.446777 1890.589722,2820.255127 
	C1840.831299,2813.976807 1792.216187,2801.834229 1743.516113,2790.338867 
	C1722.629272,2785.408936 1702.029663,2779.019531 1681.654175,2772.229004 
	C1657.050781,2764.029297 1632.903931,2754.470703 1608.414917,2745.914062 
	C1573.362549,2733.666992 1539.911255,2717.712402 1506.481323,2701.808350 
	C1476.254395,2687.427979 1446.757690,2671.554443 1418.315674,2653.794189 
	C1398.245361,2641.260986 1377.491455,2629.770020 1357.873169,2616.579102 
	C1334.002319,2600.528809 1311.127563,2583.005371 1287.598022,2566.437012 
	C1251.886841,2541.291504 1218.963379,2512.697754 1187.146484,2483.002686 
	C1158.957886,2456.693848 1132.337036,2428.643555 1105.915283,2400.524414 
	C1087.567505,2380.998291 1069.912476,2360.692139 1053.414307,2339.588135 
	C1030.136475,2309.812500 1007.459839,2279.499268 985.957764,2248.425293 
	C969.598450,2224.783447 955.167969,2199.777832 940.436035,2175.047363 
	C927.738220,2153.731445 915.191528,2132.276855 903.753357,2110.272949 
	C893.243164,2090.054199 884.136963,2069.094727 874.723755,2048.320557 
	C868.047424,2033.586304 861.437073,2018.792603 855.598511,2003.715088 
	C845.024658,1976.409424 834.340027,1949.109863 825.028809,1921.362549 
	C816.253174,1895.211304 808.959412,1868.550781 801.451416,1841.990601 
	C796.645691,1824.989746 792.376709,1807.824585 788.348755,1790.620483 
	C785.197632,1777.161255 782.469604,1763.582886 780.135742,1749.957764 
	C777.787170,1736.246826 776.714783,1722.304443 774.064514,1708.661377 
	C771.084351,1693.319702 769.122192,1677.931763 767.870422,1662.366577 
	C766.249756,1642.214233 763.864746,1622.123291 761.910583,1600.194702 
	C761.827942,1595.869629 761.853027,1591.539185 761.644531,1587.220215 
	C760.573181,1565.028931 758.880371,1542.849976 758.498352,1520.647949 
	C758.155823,1500.736816 759.517151,1480.802856 759.617859,1460.876221 
	C759.779114,1428.979980 761.893250,1397.202393 765.809875,1365.593262 
	C770.046997,1331.397095 774.484985,1297.188965 780.260925,1263.228516 
	C790.348938,1203.914062 805.337891,1145.749023 824.241028,1088.611450 
	C828.718018,1075.078979 833.175110,1061.539795 838.425293,1046.745972 
	C841.158752,1039.611572 843.882141,1032.473145 846.627014,1025.343262 
	C868.283508,969.090149 893.359131,914.391541 922.505371,861.640686 
	C950.529907,810.919800 981.626709,762.105530 1015.906677,715.341370 
	C1050.360229,668.340271 1087.752075,623.789734 1127.980225,581.663635 
	C1144.066895,564.817993 1161.221069,548.992432 1177.873413,532.686340 
	C1185.469116,525.248474 1193.026245,517.771362 1201.899292,510.039734 
	C1231.332764,485.828217 1260.227783,460.920105 1290.368164,437.623077 
	C1314.995483,418.587341 1341.109253,401.474457 1367.949951,383.074738 
	C1390.342651,369.441956 1412.503784,355.409821 1435.179443,342.265106 
	C1474.248047,319.617523 1514.874878,299.982758 1557.343628,281.086121 
	C1695.957764,219.877563 1841.082886,184.830978 1994.450684,172.794495 
	C1990.152466,171.519501 1988.118042,170.449081 1986.047485,170.373764 
	C1964.468384,169.588715 1942.887085,168.652252 1921.298950,168.407288 
	C1907.702881,168.253006 1894.088379,169.068390 1880.492554,169.681335 
	C1852.643677,170.936890 1824.769775,171.892914 1796.967407,173.845169 
	C1775.814941,175.330475 1754.668701,177.541458 1733.674927,180.522583 
	C1686.076782,187.281479 1638.763306,195.730423 1592.174683,207.768051 
	C1575.282227,212.132736 1558.560303,217.156738 1540.197876,221.789459 
M1189.000000,1690.325439 
	C1072.100342,1690.325439 955.200623,1690.325439 838.163452,1690.325439 
	C892.888367,2115.376465 1209.132446,2585.023682 1758.357788,2742.440430 
	C2036.816284,2822.250977 2312.868896,2808.785156 2583.052734,2703.757080 
	C2807.185303,2616.630127 2991.252197,2475.115723 3139.148926,2284.530762 
	C3012.709961,2192.535156 2886.940918,2101.026855 2760.562744,2009.075439 
	C2661.821289,2132.752197 2539.315918,2222.965332 2390.689209,2276.380859 
	C2242.247559,2329.729492 2090.407959,2339.066162 1936.541748,2305.436768 
	C1782.318726,2271.729736 1648.776489,2198.589111 1536.346680,2087.677734 
	C1423.977539,1976.826172 1349.902832,1844.068848 1312.540405,1690.325439 
	C1271.562012,1690.325439 1231.281006,1690.325439 1189.000000,1690.325439 
M2862.694336,921.703674 
	C2954.585938,854.791565 3046.477539,787.879517 3139.121826,720.419373 
	C2991.575439,530.143555 2808.007080,388.661804 2584.144287,301.524994 
	C2316.390137,197.303757 2042.773193,183.196594 1766.253418,260.301697 
	C1224.703003,411.308167 895.916565,873.455078 838.210999,1313.755981 
	C996.415161,1313.755981 1154.560059,1313.755981 1312.456177,1313.755981 
	C1364.941162,1105.461792 1477.949219,939.095886 1655.792725,819.590393 
	C1833.888306,699.915649 2031.049927,657.204468 2242.884521,690.695190 
	C2454.805176,724.199585 2626.060059,829.488892 2760.863525,995.742920 
	C2794.798584,971.007019 2828.127686,946.712830 2862.694336,921.703674 
M1832.950073,1690.324097 
	C1723.992920,1690.324097 1615.035767,1690.324097 1505.926270,1690.324097 
	C1550.566528,1857.788452 1717.699219,2078.845215 2002.094116,2129.177734 
	C2260.034424,2174.828369 2490.794678,2055.129395 2608.674072,1898.658569 
	C2522.934082,1836.262695 2437.198242,1773.869995 2351.166260,1711.261841 
	C2346.570801,1716.231445 2342.670166,1720.759521 2338.448486,1724.965576 
	C2303.759521,1759.527954 2263.590576,1785.512939 2217.294678,1801.728394 
	C2183.475342,1813.573608 2148.583008,1819.799072 2112.751221,1819.494995 
	C2097.536865,1819.365723 2082.251221,1818.063110 2067.149658,1816.117065 
	C2031.541016,1811.528564 1997.880371,1800.282959 1966.102905,1783.724365 
	C1928.804810,1764.289185 1896.892456,1737.983154 1869.549316,1706.074585 
	C1865.064331,1700.840820 1861.375000,1693.674683 1855.653442,1691.099121 
	C1849.810669,1688.469238 1841.917847,1690.393677 1832.950073,1690.324097 
M2123.868164,1185.462280 
	C2215.159668,1188.695190 2289.834717,1227.204346 2351.577393,1293.433105 
	C2437.749512,1230.727539 2523.508789,1168.322388 2609.289551,1105.901489 
	C2471.591064,930.222656 2226.441650,820.203369 1960.791138,884.501953 
	C1717.308350,943.435059 1556.434082,1134.874390 1505.697388,1313.919922 
	C1508.396973,1314.062134 1510.998047,1314.318481 1513.599121,1314.318970 
	C1625.589233,1314.338867 1737.579468,1314.303833 1849.569458,1314.434082 
	C1855.030884,1314.440430 1858.614502,1312.979980 1862.031494,1308.424194 
	C1879.910767,1284.585938 1901.169678,1264.072266 1925.153442,1246.415161 
	C1966.609009,1215.895386 2012.801880,1196.275635 2063.658936,1188.690430 
	C2082.906250,1185.819824 2102.617188,1186.060303 2123.868164,1185.462280 
M3281.742432,1454.430908 
	C3281.742432,1405.943237 3281.742432,1357.455566 3281.742432,1309.041992 
	C3249.819336,1309.041992 3219.375977,1309.041992 3187.906738,1309.041992 
	C3187.906738,1358.859497 3187.906738,1407.958740 3187.906738,1457.654297 
	C3174.935547,1457.654297 3162.991455,1457.654297 3151.047363,1457.654297 
	C3139.055176,1457.654297 3127.062988,1457.654297 3115.070801,1457.654297 
	C3102.745361,1457.654297 3090.418945,1457.545654 3078.094971,1457.685669 
	C3066.296143,1457.819702 3054.445312,1457.068848 3042.932373,1458.155762 
	C3042.932373,1488.518799 3042.932373,1517.680664 3042.932373,1547.908081 
	C3091.620117,1547.908081 3139.708252,1547.908081 3188.576660,1547.908081 
	C3188.576660,1597.805176 3188.576660,1646.631592 3188.576660,1695.811890 
	C3219.838135,1695.811890 3250.298584,1695.811890 3281.919434,1695.811890 
	C3281.919434,1646.229858 3281.919434,1597.166992 3281.919434,1547.403076 
	C3330.924072,1547.403076 3378.770752,1547.403076 3427.091309,1547.403076 
	C3427.091309,1517.251831 3427.091309,1487.825317 3427.091309,1457.654297 
	C3422.904785,1457.654297 3419.289795,1457.654297 3415.674805,1457.654297 
	C3374.701416,1457.654297 3333.728271,1457.687866 3292.755127,1457.594849 
	C3289.230713,1457.586792 3285.708496,1456.738647 3281.742432,1454.430908 
M2805.675293,1579.005005 
	C2805.675293,1568.788452 2805.675293,1558.572021 2805.675293,1547.304565 
	C2854.891846,1547.304565 2902.990234,1547.304565 2951.185059,1547.304565 
	C2951.185059,1517.023071 2951.185059,1487.834473 2951.185059,1457.554688 
	C2902.595947,1457.554688 2854.484375,1457.554688 2805.374023,1457.554688 
	C2805.374023,1407.332764 2805.374023,1358.196411 2805.374023,1309.197754 
	C2789.808594,1307.360840 2720.902588,1307.956177 2713.661621,1309.989868 
	C2713.661621,1322.166138 2713.661621,1334.480225 2713.661621,1346.794434 
	C2713.661621,1359.123291 2713.661621,1371.452026 2713.661621,1383.780884 
	C2713.661621,1396.109741 2713.697998,1408.438599 2713.651123,1420.767334 
	C2713.604980,1432.935303 2713.870850,1445.120605 2713.433350,1457.948730 
	C2664.182861,1457.948730 2616.326172,1457.948730 2568.319824,1457.948730 
	C2568.319824,1488.117065 2568.319824,1517.542725 2568.319824,1547.680786 
	C2580.901123,1547.680786 2592.837891,1547.680786 2604.774658,1547.680786 
	C2616.770264,1547.680786 2628.765625,1547.680786 2640.761230,1547.680786 
	C2653.090088,1547.680786 2665.418945,1547.655640 2677.747803,1547.687866 
	C2689.572754,1547.718750 2701.409424,1547.546997 2714.010254,1547.810547 
	C2714.010254,1598.079834 2714.010254,1646.893921 2714.010254,1695.612671 
	C2732.224854,1697.360718 2797.917725,1696.727295 2805.675293,1694.674561 
	C2805.675293,1656.885620 2805.675293,1618.944092 2805.675293,1579.005005 
M1157.000000,1617.690552 
	C1203.882324,1617.690552 1250.764648,1617.690552 1298.443604,1617.690552 
	C1295.990967,1590.618530 1293.647095,1564.745972 1291.312012,1538.969971 
	C1135.225952,1538.969971 980.127808,1538.969971 823.856689,1538.969971 
	C825.469971,1565.378174 827.038818,1591.060303 828.665649,1617.690552 
	C937.929077,1617.690552 1046.464478,1617.690552 1157.000000,1617.690552 
M1095.000000,1466.335083 
	C1160.212646,1466.335083 1225.425415,1466.335083 1290.800903,1466.335083 
	C1293.371704,1439.871948 1295.854858,1414.310669 1298.332764,1388.803589 
	C1284.896240,1386.650146 835.580872,1387.271973 828.516663,1389.406494 
	C827.000061,1414.669189 825.478149,1440.020142 823.898376,1466.335083 
	C914.594482,1466.335083 1003.797241,1466.335083 1095.000000,1466.335083 
M1763.000000,1617.691528 
	C1780.499756,1617.691528 1797.999512,1617.691528 1815.067749,1617.691528 
	C1808.560913,1590.813110 1802.282837,1564.879639 1795.988037,1538.877563 
	C1773.047363,1536.809937 1485.081665,1537.796997 1477.793945,1540.091553 
	C1479.280640,1566.046997 1482.143677,1591.884644 1487.291748,1617.691528 
	C1579.079590,1617.691528 1670.039795,1617.691528 1763.000000,1617.691528 
M1571.000000,1466.335815 
	C1646.490479,1466.335815 1721.980957,1466.335815 1797.005371,1466.335815 
	C1799.724854,1452.137573 1801.669189,1439.332275 1804.719604,1426.796265 
	C1807.843140,1413.959717 1812.050293,1401.386963 1815.933838,1388.186035 
	C1706.038940,1388.186035 1596.626953,1388.186035 1486.130737,1388.186035 
	C1483.056885,1414.080566 1480.029297,1439.586060 1476.853882,1466.335815 
	C1508.583984,1466.335815 1538.791992,1466.335815 1571.000000,1466.335815 
z"/>
<path fill="#2C2254" opacity="1.000000" stroke="none" 
	d="
M1190.000000,1690.325439 
	C1231.281006,1690.325439 1271.562012,1690.325439 1312.540405,1690.325439 
	C1349.902832,1844.068848 1423.977539,1976.826172 1536.346680,2087.677734 
	C1648.776489,2198.589111 1782.318726,2271.729736 1936.541748,2305.436768 
	C2090.407959,2339.066162 2242.247559,2329.729492 2390.689209,2276.380859 
	C2539.315918,2222.965332 2661.821289,2132.752197 2760.562744,2009.075439 
	C2886.940918,2101.026855 3012.709961,2192.535156 3139.148926,2284.530762 
	C2991.252197,2475.115723 2807.185303,2616.630127 2583.052734,2703.757080 
	C2312.868896,2808.785156 2036.816284,2822.250977 1758.357788,2742.440430 
	C1209.132446,2585.023682 892.888367,2115.376465 838.163452,1690.325439 
	C955.200623,1690.325439 1072.100342,1690.325439 1190.000000,1690.325439 
z"/>
<path fill="#2C2254" opacity="1.000000" stroke="none" 
	d="
M2862.075684,922.061157 
	C2828.127686,946.712830 2794.798584,971.007019 2760.863525,995.742920 
	C2626.060059,829.488892 2454.805176,724.199585 2242.884521,690.695190 
	C2031.049927,657.204468 1833.888306,699.915649 1655.792725,819.590393 
	C1477.949219,939.095886 1364.941162,1105.461792 1312.456177,1313.755981 
	C1154.560059,1313.755981 996.415161,1313.755981 838.210999,1313.755981 
	C895.916565,873.455078 1224.703003,411.308167 1766.253418,260.301697 
	C2042.773193,183.196594 2316.390137,197.303757 2584.144287,301.524994 
	C2808.007080,388.661804 2991.575439,530.143555 3139.121826,720.419373 
	C3046.477539,787.879517 2954.585938,854.791565 2862.075684,922.061157 
z"/>
<path fill="#2D2354" opacity="1.000000" stroke="none" 
	d="
M1833.936279,1690.324219 
	C1841.917847,1690.393677 1849.810669,1688.469238 1855.653442,1691.099121 
	C1861.375000,1693.674683 1865.064331,1700.840820 1869.549316,1706.074585 
	C1896.892456,1737.983154 1928.804810,1764.289185 1966.102905,1783.724365 
	C1997.880371,1800.282959 2031.541016,1811.528564 2067.149658,1816.117065 
	C2082.251221,1818.063110 2097.536865,1819.365723 2112.751221,1819.494995 
	C2148.583008,1819.799072 2183.475342,1813.573608 2217.294678,1801.728394 
	C2263.590576,1785.512939 2303.759521,1759.527954 2338.448486,1724.965576 
	C2342.670166,1720.759521 2346.570801,1716.231445 2351.166260,1711.261841 
	C2437.198242,1773.869995 2522.934082,1836.262695 2608.674072,1898.658569 
	C2490.794678,2055.129395 2260.034424,2174.828369 2002.094116,2129.177734 
	C1717.699219,2078.845215 1550.566528,1857.788452 1505.926270,1690.324097 
	C1615.035767,1690.324097 1723.992920,1690.324097 1833.936279,1690.324219 
z"/>
<path fill="#2C2254" opacity="1.000000" stroke="none" 
	d="
M2122.992676,1185.172485 
	C2102.617188,1186.060303 2082.906250,1185.819824 2063.658936,1188.690430 
	C2012.801880,1196.275635 1966.609009,1215.895386 1925.153442,1246.415161 
	C1901.169678,1264.072266 1879.910767,1284.585938 1862.031494,1308.424194 
	C1858.614502,1312.979980 1855.030884,1314.440430 1849.569458,1314.434082 
	C1737.579468,1314.303833 1625.589233,1314.338867 1513.599121,1314.318970 
	C1510.998047,1314.318481 1508.396973,1314.062134 1505.697388,1313.919922 
	C1556.434082,1134.874390 1717.308350,943.435059 1960.791138,884.501953 
	C2226.441650,820.203369 2471.591064,930.222656 2609.289551,1105.901489 
	C2523.508789,1168.322388 2437.749512,1230.727539 2351.577393,1293.433105 
	C2289.834717,1227.204346 2215.159668,1188.695190 2122.992676,1185.172485 
z"/>
<path fill="#FF7900" opacity="1.000000" stroke="none" 
	d="
M761.808838,1602.005981 
	C763.864746,1622.123291 766.249756,1642.214233 767.870422,1662.366577 
	C769.122192,1677.931763 771.084351,1693.319702 774.064514,1708.661377 
	C776.714783,1722.304443 777.787170,1736.246826 780.135742,1749.957764 
	C782.469604,1763.582886 785.197632,1777.161255 788.348755,1790.620483 
	C792.376709,1807.824585 796.645691,1824.989746 801.451416,1841.990601 
	C808.959412,1868.550781 816.253174,1895.211304 825.028809,1921.362549 
	C834.340027,1949.109863 845.024658,1976.409424 855.598511,2003.715088 
	C861.437073,2018.792603 868.047424,2033.586304 874.723755,2048.320557 
	C884.136963,2069.094727 893.243164,2090.054199 903.753357,2110.272949 
	C915.191528,2132.276855 927.738220,2153.731445 940.436035,2175.047363 
	C955.167969,2199.777832 969.598450,2224.783447 985.957764,2248.425293 
	C1007.459839,2279.499268 1030.136475,2309.812500 1053.414307,2339.588135 
	C1069.912476,2360.692139 1087.567505,2380.998291 1105.915283,2400.524414 
	C1132.337036,2428.643555 1158.957886,2456.693848 1187.146484,2483.002686 
	C1218.963379,2512.697754 1251.886841,2541.291504 1287.598022,2566.437012 
	C1311.127563,2583.005371 1334.002319,2600.528809 1357.873169,2616.579102 
	C1377.491455,2629.770020 1398.245361,2641.260986 1418.315674,2653.794189 
	C1446.757690,2671.554443 1476.254395,2687.427979 1506.481323,2701.808350 
	C1539.911255,2717.712402 1573.362549,2733.666992 1608.414917,2745.914062 
	C1632.903931,2754.470703 1657.050781,2764.029297 1681.654175,2772.229004 
	C1702.029663,2779.019531 1722.629272,2785.408936 1743.516113,2790.338867 
	C1792.216187,2801.834229 1840.831299,2813.976807 1890.589722,2820.255127 
	C1923.806885,2824.446777 1957.097168,2828.058350 1990.350220,2831.968018 
	C1990.931274,2832.036133 1991.454834,2832.592773 1993.070557,2833.557373 
	C1981.373169,2834.309326 1970.681885,2835.500488 1959.981323,2835.590332 
	C1928.348389,2835.855469 1896.676514,2836.615479 1865.086548,2835.421387 
	C1833.961304,2834.244629 1802.907227,2831.036621 1771.842407,2828.472168 
	C1758.989868,2827.411133 1746.167725,2825.881104 1733.372681,2824.245361 
	C1718.338501,2822.322998 1703.245728,2820.603027 1688.362061,2817.814697 
	C1662.472046,2812.963623 1636.631104,2807.767822 1610.934326,2801.984619 
	C1562.107422,2790.995361 1514.126099,2776.952393 1467.021240,2760.040039 
	C1432.293701,2747.571533 1397.778442,2734.495605 1364.500000,2718.460693 
	C1335.900513,2704.679932 1307.143188,2691.163818 1279.078613,2676.350342 
	C1236.151001,2653.690918 1194.772217,2628.309326 1155.239624,2600.133301 
	C1127.538086,2580.389404 1100.246094,2560.000732 1073.655029,2538.791748 
	C1052.180420,2521.663574 1031.508423,2503.434326 1011.418640,2484.688232 
	C986.619751,2461.547607 962.020264,2438.096191 938.729736,2413.460205 
	C905.522583,2378.334473 874.366028,2341.326416 845.545471,2302.482422 
	C816.026550,2262.697510 788.461304,2221.585205 763.264160,2178.876709 
	C740.898010,2140.966797 720.733765,2101.915283 702.055054,2062.122070 
	C686.239624,2028.429077 672.344116,1993.894409 659.613342,1958.879272 
	C643.870300,1915.578857 629.871216,1871.751831 619.375671,1826.904663 
	C612.097473,1795.805054 605.645447,1764.485596 599.834778,1733.077515 
	C595.583740,1710.100220 592.573120,1686.867798 589.754517,1663.658569 
	C587.202820,1642.647461 585.644592,1621.515381 583.675171,1600.434082 
	C580.207397,1563.314941 578.935974,1526.073364 579.887207,1488.850830 
	C580.785583,1453.697754 583.367249,1418.587769 586.316162,1382.802979 
	C589.890381,1384.655640 592.979309,1386.796875 594.713562,1389.737061 
	C601.443909,1401.147461 607.369324,1413.040649 614.271423,1424.340576 
	C638.259338,1463.613403 663.829285,1501.730103 693.609741,1537.010376 
	C709.690308,1556.060425 726.744080,1574.067017 744.607666,1591.339478 
	C749.388000,1595.961670 753.961243,1601.902832 761.808838,1602.005981 
z"/>
<path fill="#FF8501" opacity="1.000000" stroke="none" 
	d="
M761.859741,1601.100342 
	C753.961243,1601.902832 749.388000,1595.961670 744.607666,1591.339478 
	C726.744080,1574.067017 709.690308,1556.060425 693.609741,1537.010376 
	C663.829285,1501.730103 638.259338,1463.613403 614.271423,1424.340576 
	C607.369324,1413.040649 601.443909,1401.147461 594.713562,1389.737061 
	C592.979309,1386.796875 589.890381,1384.655640 586.724487,1382.073975 
	C586.808594,1370.442017 586.813660,1358.767090 588.519531,1347.346191 
	C593.901855,1311.311279 599.261841,1275.250000 605.857361,1239.424805 
	C614.635986,1191.740967 627.229126,1144.961304 641.884521,1098.734375 
	C658.159912,1047.397583 677.174866,997.097229 699.997986,948.335388 
	C713.508606,919.469849 728.518372,891.306091 744.158325,862.426392 
	C747.058228,863.369446 749.473511,864.409668 750.102539,866.110535 
	C752.398438,872.318909 753.955750,878.795166 756.045898,885.085876 
	C769.250732,924.827515 783.240845,964.282043 804.419312,1000.644958 
	C813.256104,1015.817627 823.153076,1030.377075 832.760010,1045.090088 
	C833.690979,1046.515869 835.981873,1047.053711 837.641479,1048.003784 
	C833.175110,1061.539795 828.718018,1075.078979 824.241028,1088.611450 
	C805.337891,1145.749023 790.348938,1203.914062 780.260925,1263.228516 
	C774.484985,1297.188965 770.046997,1331.397095 765.809875,1365.593262 
	C761.893250,1397.202393 759.779114,1428.979980 759.617859,1460.876221 
	C759.517151,1480.802856 758.155823,1500.736816 758.498352,1520.647949 
	C758.880371,1542.849976 760.573181,1565.028931 761.644531,1587.220215 
	C761.853027,1591.539185 761.827942,1595.869629 761.859741,1601.100342 
z"/>
<path fill="#FF9601" opacity="1.000000" stroke="none" 
	d="
M838.033386,1047.374878 
	C835.981873,1047.053711 833.690979,1046.515869 832.760010,1045.090088 
	C823.153076,1030.377075 813.256104,1015.817627 804.419312,1000.644958 
	C783.240845,964.282043 769.250732,924.827515 756.045898,885.085876 
	C753.955750,878.795166 752.398438,872.318909 750.102539,866.110535 
	C749.473511,864.409668 747.058228,863.369446 744.695679,862.000366 
	C748.253479,853.785034 752.322205,845.447876 756.943420,837.429016 
	C794.367065,772.490662 836.870239,711.021301 884.714172,653.357666 
	C904.210388,629.859985 925.127014,607.527222 945.718811,584.957764 
	C956.919128,572.681641 968.507935,560.727173 980.416626,549.136230 
	C1018.057251,512.500366 1057.366699,477.734192 1099.289062,446.051758 
	C1121.288086,429.426178 1143.909058,413.623688 1167.187500,397.912842 
	C1172.085938,409.589355 1176.784790,420.604980 1179.848999,432.057922 
	C1185.809692,454.336304 1191.610840,476.684418 1194.425903,499.687225 
	C1194.904785,503.600769 1195.620972,508.492798 1200.600952,510.312073 
	C1193.026245,517.771362 1185.469116,525.248474 1177.873413,532.686340 
	C1161.221069,548.992432 1144.066895,564.817993 1127.980225,581.663635 
	C1087.752075,623.789734 1050.360229,668.340271 1015.906677,715.341370 
	C981.626709,762.105530 950.529907,810.919800 922.505371,861.640686 
	C893.359131,914.391541 868.283508,969.090149 846.627014,1025.343262 
	C843.882141,1032.473145 841.158752,1039.611572 838.033386,1047.374878 
z"/>
<path fill="#2E2456" opacity="1.000000" stroke="none" 
	d="
M3281.963867,1455.355957 
	C3285.708496,1456.738647 3289.230713,1457.586792 3292.755127,1457.594849 
	C3333.728271,1457.687866 3374.701416,1457.654297 3415.674805,1457.654297 
	C3419.289795,1457.654297 3422.904785,1457.654297 3427.091309,1457.654297 
	C3427.091309,1487.825317 3427.091309,1517.251831 3427.091309,1547.403076 
	C3378.770752,1547.403076 3330.924072,1547.403076 3281.919434,1547.403076 
	C3281.919434,1597.166992 3281.919434,1646.229858 3281.919434,1695.811890 
	C3250.298584,1695.811890 3219.838135,1695.811890 3188.576660,1695.811890 
	C3188.576660,1646.631592 3188.576660,1597.805176 3188.576660,1547.908081 
	C3139.708252,1547.908081 3091.620117,1547.908081 3042.932373,1547.908081 
	C3042.932373,1517.680664 3042.932373,1488.518799 3042.932373,1458.155762 
	C3054.445312,1457.068848 3066.296143,1457.819702 3078.094971,1457.685669 
	C3090.418945,1457.545654 3102.745361,1457.654297 3115.070801,1457.654297 
	C3127.062988,1457.654297 3139.055176,1457.654297 3151.047363,1457.654297 
	C3162.991455,1457.654297 3174.935547,1457.654297 3187.906738,1457.654297 
	C3187.906738,1407.958740 3187.906738,1358.859497 3187.906738,1309.041992 
	C3219.375977,1309.041992 3249.819336,1309.041992 3281.742432,1309.041992 
	C3281.742432,1357.455566 3281.742432,1405.943237 3281.963867,1455.355957 
z"/>
<path fill="#2D2355" opacity="1.000000" stroke="none" 
	d="
M2805.675293,1580.003906 
	C2805.675293,1618.944092 2805.675293,1656.885620 2805.675293,1694.674561 
	C2797.917725,1696.727295 2732.224854,1697.360718 2714.010254,1695.612671 
	C2714.010254,1646.893921 2714.010254,1598.079834 2714.010254,1547.810547 
	C2701.409424,1547.546997 2689.572754,1547.718750 2677.747803,1547.687866 
	C2665.418945,1547.655640 2653.090088,1547.680786 2640.761230,1547.680786 
	C2628.765625,1547.680786 2616.770264,1547.680786 2604.774658,1547.680786 
	C2592.837891,1547.680786 2580.901123,1547.680786 2568.319824,1547.680786 
	C2568.319824,1517.542725 2568.319824,1488.117065 2568.319824,1457.948730 
	C2616.326172,1457.948730 2664.182861,1457.948730 2713.433350,1457.948730 
	C2713.870850,1445.120605 2713.604980,1432.935303 2713.651123,1420.767334 
	C2713.697998,1408.438599 2713.661621,1396.109741 2713.661621,1383.780884 
	C2713.661621,1371.452026 2713.661621,1359.123291 2713.661621,1346.794434 
	C2713.661621,1334.480225 2713.661621,1322.166138 2713.661621,1309.989868 
	C2720.902588,1307.956177 2789.808594,1307.360840 2805.374023,1309.197754 
	C2805.374023,1358.196411 2805.374023,1407.332764 2805.374023,1457.554688 
	C2854.484375,1457.554688 2902.595947,1457.554688 2951.185059,1457.554688 
	C2951.185059,1487.834473 2951.185059,1517.023071 2951.185059,1547.304565 
	C2902.990234,1547.304565 2854.891846,1547.304565 2805.675293,1547.304565 
	C2805.675293,1558.572021 2805.675293,1568.788452 2805.675293,1580.003906 
z"/>
<path fill="#2F2556" opacity="1.000000" stroke="none" 
	d="
M1156.000000,1617.690552 
	C1046.464478,1617.690552 937.929077,1617.690552 828.665649,1617.690552 
	C827.038818,1591.060303 825.469971,1565.378174 823.856689,1538.969971 
	C980.127808,1538.969971 1135.225952,1538.969971 1291.312012,1538.969971 
	C1293.647095,1564.745972 1295.990967,1590.618530 1298.443604,1617.690552 
	C1250.764648,1617.690552 1203.882324,1617.690552 1156.000000,1617.690552 
z"/>
<path fill="#2C2254" opacity="1.000000" stroke="none" 
	d="
M1094.000000,1466.335083 
	C1003.797241,1466.335083 914.594482,1466.335083 823.898376,1466.335083 
	C825.478149,1440.020142 827.000061,1414.669189 828.516663,1389.406494 
	C835.580872,1387.271973 1284.896240,1386.650146 1298.332764,1388.803589 
	C1295.854858,1414.310669 1293.371704,1439.871948 1290.800903,1466.335083 
	C1225.425415,1466.335083 1160.212646,1466.335083 1094.000000,1466.335083 
z"/>
<path fill="#2F2556" opacity="1.000000" stroke="none" 
	d="
M1762.000000,1617.691528 
	C1670.039795,1617.691528 1579.079590,1617.691528 1487.291748,1617.691528 
	C1482.143677,1591.884644 1479.280640,1566.046997 1477.793945,1540.091553 
	C1485.081665,1537.796997 1773.047363,1536.809937 1795.988037,1538.877563 
	C1802.282837,1564.879639 1808.560913,1590.813110 1815.067749,1617.691528 
	C1797.999512,1617.691528 1780.499756,1617.691528 1762.000000,1617.691528 
z"/>
<path fill="#2C2254" opacity="1.000000" stroke="none" 
	d="
M1570.000000,1466.335815 
	C1538.791992,1466.335815 1508.583984,1466.335815 1476.853882,1466.335815 
	C1480.029297,1439.586060 1483.056885,1414.080566 1486.130737,1388.186035 
	C1596.626953,1388.186035 1706.038940,1388.186035 1815.933838,1388.186035 
	C1812.050293,1401.386963 1807.843140,1413.959717 1804.719604,1426.796265 
	C1801.669189,1439.332275 1799.724854,1452.137573 1797.005371,1466.335815 
	C1721.980957,1466.335815 1646.490479,1466.335815 1570.000000,1466.335815 
z"/>
<path fill="#FF8E01" opacity="1.000000" stroke="none" 
	d="
M1201.250122,510.175903 
	C1195.620972,508.492798 1194.904785,503.600769 1194.425903,499.687225 
	C1191.610840,476.684418 1185.809692,454.336304 1179.848999,432.057922 
	C1176.784790,420.604980 1172.085938,409.589355 1167.830078,397.620422 
	C1193.084717,380.708191 1218.041260,363.499664 1244.334351,348.659058 
	C1277.877075,329.726471 1312.499756,312.707001 1347.332275,295.556335 
	C1349.331543,303.050232 1350.541138,309.875336 1352.000488,316.646576 
	C1356.806274,338.944580 1361.702515,361.223083 1366.563965,383.509064 
	C1341.109253,401.474457 1314.995483,418.587341 1290.368164,437.623077 
	C1260.227783,460.920105 1231.332764,485.828217 1201.250122,510.175903 
z"/>
<path fill="#FF8302" opacity="1.000000" stroke="none" 
	d="
M1367.256958,383.291901 
	C1361.702515,361.223083 1356.806274,338.944580 1352.000488,316.646576 
	C1350.541138,309.875336 1349.331543,303.050232 1348.007446,295.448425 
	C1362.434570,287.949646 1376.672852,280.803192 1391.323853,274.636932 
	C1439.929077,254.180099 1489.390259,236.072128 1541.655518,222.184921 
	C1543.921265,223.588150 1545.243408,224.496368 1545.460449,225.618500 
	C1549.053833,244.183258 1552.508179,262.774902 1555.993652,281.360535 
	C1514.874878,299.982758 1474.248047,319.617523 1435.179443,342.265106 
	C1412.503784,355.409821 1390.342651,369.441956 1367.256958,383.291901 
z"/>
<path fill="#FF7B04" opacity="1.000000" stroke="none" 
	d="
M1556.668701,281.223328 
	C1552.508179,262.774902 1549.053833,244.183258 1545.460449,225.618500 
	C1545.243408,224.496368 1543.921265,223.588150 1542.436890,222.230133 
	C1558.560303,217.156738 1575.282227,212.132736 1592.174683,207.768051 
	C1638.763306,195.730423 1686.076782,187.281479 1733.674927,180.522583 
	C1754.668701,177.541458 1775.814941,175.330475 1796.967407,173.845169 
	C1824.769775,171.892914 1852.643677,170.936890 1880.492554,169.681335 
	C1894.088379,169.068390 1907.702881,168.253006 1921.298950,168.407288 
	C1942.887085,168.652252 1964.468384,169.588715 1986.047485,170.373764 
	C1988.118042,170.449081 1990.152466,171.519501 1994.450684,172.794495 
	C1841.082886,184.830978 1695.957764,219.877563 1556.668701,281.223328 
z"/>
</svg>