<?xml version="1.0" encoding="UTF-8"?>
<svg version="1.1" xmlns="http://www.w3.org/2000/svg" width="50" height="50">
<path d="M0 0 C0.99 0 1.98 0 3 0 C4.65 2.97 6.3 5.94 8 9 C8.66 8.01 9.32 7.02 10 6 C13 7 13 7 14.6875 10.0625 C15.120625 11.031875 15.55375 12.00125 16 13 C16.763125 12.34 17.52625 11.68 18.3125 11 C21 9 21 9 24 9 C25.83305627 16.59409025 27.11856113 24.23583631 28 32 C28.15662109 33.34964844 28.15662109 33.34964844 28.31640625 34.7265625 C28 37 28 37 26.20703125 38.6953125 C25.41683594 39.16710938 24.62664063 39.63890625 23.8125 40.125 C22.9875 40.62515625 22.1625 41.1253125 21.3125 41.640625 C20.549375 42.08921875 19.78625 42.5378125 19 43 C17.6696875 43.928125 17.6696875 43.928125 16.3125 44.875 C13.25020875 46.36476331 11.39826169 46.32768952 8 46 C5.56151279 44.76812901 3.43818508 43.56381217 1.1875 42.0625 C0.60291016 41.68931641 0.01832031 41.31613281 -0.58398438 40.93164062 C-4.74312601 38.25687399 -4.74312601 38.25687399 -6 37 C-5.7990239 28.91650918 -4.29301632 20.83923094 -3 12.875 C-2.82210938 11.740625 -2.64421875 10.60625 -2.4609375 9.4375 C-2.28820312 8.36242187 -2.11546875 7.28734375 -1.9375 6.1796875 C-1.70353516 4.72151611 -1.70353516 4.72151611 -1.46484375 3.23388672 C-1 1 -1 1 0 0 Z " fill="#FFC400" transform="translate(14,2)"/>
<path d="M0 0 C0.99 0 1.98 0 3 0 C4.65 2.97 6.3 5.94 8 9 C8.66 8.01 9.32 7.02 10 6 C13 7 13 7 14.75 9.8125 C16.30916309 13.78836588 16.30916309 13.78836588 15 17 C13.06640625 19.29003906 13.06640625 19.29003906 10.5625 21.765625 C9.22058594 23.09980469 9.22058594 23.09980469 7.8515625 24.4609375 C6.44003906 25.84152344 6.44003906 25.84152344 5 27.25 C4.04884787 28.1946773 3.09831963 29.13998321 2.1484375 30.0859375 C-4.84625547 37 -4.84625547 37 -6 37 C-5.3808168 28.88747801 -4.30353118 20.90399641 -3 12.875 C-2.82210938 11.740625 -2.64421875 10.60625 -2.4609375 9.4375 C-2.28820312 8.36242187 -2.11546875 7.28734375 -1.9375 6.1796875 C-1.70353516 4.72151611 -1.70353516 4.72151611 -1.46484375 3.23388672 C-1 1 -1 1 0 0 Z " fill="#FF9F00" transform="translate(14,2)"/>
<path d="M0 0 C2.25340185 1.76353188 3.03000713 3.07964717 4.05078125 5.7890625 C3.98580528 9.89754312 2.77097314 11.01396571 -0.08007812 13.79296875 C-0.65177734 14.31503906 -1.22347656 14.83710938 -1.8125 15.375 C-2.37259766 15.92027344 -2.93269531 16.46554688 -3.50976562 17.02734375 C-7.67657425 21 -7.67657425 21 -10 21 C-8.51991304 15.99886406 -6.3681664 11.67084403 -3.875 7.125 C-3.50246094 6.43664062 -3.12992188 5.74828125 -2.74609375 5.0390625 C-1.83500474 3.35705202 -0.91809685 1.67819564 0 0 Z " fill="#FF7300" transform="translate(21,14)"/>
<path d="M0 0 C3 1 3 1 4.75 3.8125 C6 7 6 7 5.9375 9.1875 C4.72575279 11.53021128 3.19305584 12.58512526 1 14 C-1.42145451 9.15709097 -2.54946779 6.42313727 -1 1 C-0.67 0.67 -0.34 0.34 0 0 Z " fill="#FF8E00" transform="translate(24,8)"/>
</svg>
